<mxfile host="app.diagrams.net" agent="Mozilla/5.0 (Windows NT 10.0; Win64; x64) AppleWebKit/537.36 (KHTML, like Gecko) Chrome/131.0.0.0 Safari/537.36" version="25.0.3">
  <diagram name="Page-1" id="hnx36Q2FccpPgzT7XMoK">
    <mxGraphModel dx="1114" dy="1000" grid="0" gridSize="10" guides="1" tooltips="1" connect="1" arrows="1" fold="1" page="0" pageScale="1" pageWidth="850" pageHeight="1100" math="0" shadow="0">
      <root>
        <mxCell id="0" />
        <mxCell id="1" parent="0" />
        <mxCell id="ymAzP-dkj9Wv20Yx5qc4-1" value="END" style="ellipse;whiteSpace=wrap;html=1;" parent="1" vertex="1">
          <mxGeometry x="245" y="649" width="120" height="80" as="geometry" />
        </mxCell>
        <mxCell id="ymAzP-dkj9Wv20Yx5qc4-25" style="edgeStyle=none;curved=1;rounded=0;orthogonalLoop=1;jettySize=auto;html=1;exitX=0.5;exitY=1;exitDx=0;exitDy=0;entryX=0.5;entryY=0;entryDx=0;entryDy=0;fontSize=12;startSize=8;endSize=8;" parent="1" source="ymAzP-dkj9Wv20Yx5qc4-2" target="ymAzP-dkj9Wv20Yx5qc4-3" edge="1">
          <mxGeometry relative="1" as="geometry" />
        </mxCell>
        <mxCell id="ymAzP-dkj9Wv20Yx5qc4-2" value="START" style="ellipse;whiteSpace=wrap;html=1;" parent="1" vertex="1">
          <mxGeometry x="202" y="-81" width="120" height="80" as="geometry" />
        </mxCell>
        <mxCell id="ymAzP-dkj9Wv20Yx5qc4-19" style="edgeStyle=none;curved=1;rounded=0;orthogonalLoop=1;jettySize=auto;html=1;exitX=0.5;exitY=1;exitDx=0;exitDy=0;entryX=0.5;entryY=0;entryDx=0;entryDy=0;fontSize=12;startSize=8;endSize=8;" parent="1" source="ymAzP-dkj9Wv20Yx5qc4-3" target="ymAzP-dkj9Wv20Yx5qc4-6" edge="1">
          <mxGeometry relative="1" as="geometry" />
        </mxCell>
        <mxCell id="ymAzP-dkj9Wv20Yx5qc4-3" value="Select Operation Type" style="rounded=1;whiteSpace=wrap;html=1;" parent="1" vertex="1">
          <mxGeometry x="202" y="24" width="120" height="60" as="geometry" />
        </mxCell>
        <mxCell id="ymAzP-dkj9Wv20Yx5qc4-20" style="edgeStyle=none;curved=1;rounded=0;orthogonalLoop=1;jettySize=auto;html=1;exitX=0.5;exitY=1;exitDx=0;exitDy=0;fontSize=12;startSize=8;endSize=8;" parent="1" source="ymAzP-dkj9Wv20Yx5qc4-6" edge="1">
          <mxGeometry relative="1" as="geometry">
            <mxPoint x="262" y="307" as="targetPoint" />
          </mxGeometry>
        </mxCell>
        <mxCell id="ymAzP-dkj9Wv20Yx5qc4-46" style="edgeStyle=orthogonalEdgeStyle;rounded=0;orthogonalLoop=1;jettySize=auto;html=1;fontSize=12;startSize=8;endSize=8;entryX=1;entryY=0.5;entryDx=0;entryDy=0;" parent="1" source="ymAzP-dkj9Wv20Yx5qc4-6" target="ymAzP-dkj9Wv20Yx5qc4-3" edge="1">
          <mxGeometry relative="1" as="geometry">
            <mxPoint x="576" y="37" as="targetPoint" />
            <Array as="points">
              <mxPoint x="512" y="188" />
              <mxPoint x="512" y="54" />
            </Array>
          </mxGeometry>
        </mxCell>
        <mxCell id="ymAzP-dkj9Wv20Yx5qc4-6" value="Which Operation do you want to carry out" style="rhombus;whiteSpace=wrap;html=1;" parent="1" vertex="1">
          <mxGeometry x="97" y="127" width="330" height="122" as="geometry" />
        </mxCell>
        <mxCell id="ymAzP-dkj9Wv20Yx5qc4-30" style="edgeStyle=none;curved=1;rounded=0;orthogonalLoop=1;jettySize=auto;html=1;exitX=0.5;exitY=1;exitDx=0;exitDy=0;entryX=0.5;entryY=0;entryDx=0;entryDy=0;fontSize=12;startSize=8;endSize=8;" parent="1" source="ymAzP-dkj9Wv20Yx5qc4-8" target="ymAzP-dkj9Wv20Yx5qc4-13" edge="1">
          <mxGeometry relative="1" as="geometry" />
        </mxCell>
        <mxCell id="ymAzP-dkj9Wv20Yx5qc4-8" value="Fast Fourier Transform (FFT)" style="rounded=1;whiteSpace=wrap;html=1;" parent="1" vertex="1">
          <mxGeometry x="391" y="339" width="120" height="60" as="geometry" />
        </mxCell>
        <mxCell id="ymAzP-dkj9Wv20Yx5qc4-29" style="edgeStyle=none;curved=1;rounded=0;orthogonalLoop=1;jettySize=auto;html=1;exitX=0.5;exitY=1;exitDx=0;exitDy=0;entryX=0.5;entryY=0;entryDx=0;entryDy=0;fontSize=12;startSize=8;endSize=8;" parent="1" source="ymAzP-dkj9Wv20Yx5qc4-9" target="ymAzP-dkj9Wv20Yx5qc4-11" edge="1">
          <mxGeometry relative="1" as="geometry" />
        </mxCell>
        <mxCell id="ymAzP-dkj9Wv20Yx5qc4-9" value="&amp;nbsp;Gradient Descent           |&lt;br/&gt;| (Optimization Function)" style="rounded=1;whiteSpace=wrap;html=1;" parent="1" vertex="1">
          <mxGeometry x="238" y="341" width="120" height="60" as="geometry" />
        </mxCell>
        <mxCell id="ymAzP-dkj9Wv20Yx5qc4-28" style="edgeStyle=none;curved=1;rounded=0;orthogonalLoop=1;jettySize=auto;html=1;exitX=0.5;exitY=1;exitDx=0;exitDy=0;entryX=0.5;entryY=0;entryDx=0;entryDy=0;fontSize=12;startSize=8;endSize=8;" parent="1" source="ymAzP-dkj9Wv20Yx5qc4-10" target="ymAzP-dkj9Wv20Yx5qc4-12" edge="1">
          <mxGeometry relative="1" as="geometry" />
        </mxCell>
        <mxCell id="ymAzP-dkj9Wv20Yx5qc4-10" value="&amp;nbsp;Matrix Operations" style="rounded=1;whiteSpace=wrap;html=1;" parent="1" vertex="1">
          <mxGeometry x="99" y="341" width="120" height="60" as="geometry" />
        </mxCell>
        <mxCell id="ymAzP-dkj9Wv20Yx5qc4-31" style="edgeStyle=none;curved=1;rounded=0;orthogonalLoop=1;jettySize=auto;html=1;exitX=0.5;exitY=1;exitDx=0;exitDy=0;entryX=0.5;entryY=0;entryDx=0;entryDy=0;fontSize=12;startSize=8;endSize=8;" parent="1" source="ymAzP-dkj9Wv20Yx5qc4-11" target="ymAzP-dkj9Wv20Yx5qc4-14" edge="1">
          <mxGeometry relative="1" as="geometry" />
        </mxCell>
        <mxCell id="ymAzP-dkj9Wv20Yx5qc4-11" value="Perform Gradient Descent Iterations" style="rounded=1;whiteSpace=wrap;html=1;" parent="1" vertex="1">
          <mxGeometry x="240" y="430" width="120" height="60" as="geometry" />
        </mxCell>
        <mxCell id="ymAzP-dkj9Wv20Yx5qc4-33" style="edgeStyle=none;curved=1;rounded=0;orthogonalLoop=1;jettySize=auto;html=1;exitX=0.5;exitY=1;exitDx=0;exitDy=0;entryX=0.5;entryY=0;entryDx=0;entryDy=0;fontSize=12;startSize=8;endSize=8;" parent="1" source="ymAzP-dkj9Wv20Yx5qc4-12" target="ymAzP-dkj9Wv20Yx5qc4-16" edge="1">
          <mxGeometry relative="1" as="geometry" />
        </mxCell>
        <mxCell id="ymAzP-dkj9Wv20Yx5qc4-12" value="Perform Selected Matrix Operation" style="rounded=1;whiteSpace=wrap;html=1;" parent="1" vertex="1">
          <mxGeometry x="101" y="430" width="120" height="60" as="geometry" />
        </mxCell>
        <mxCell id="ymAzP-dkj9Wv20Yx5qc4-32" style="edgeStyle=none;curved=1;rounded=0;orthogonalLoop=1;jettySize=auto;html=1;exitX=0.5;exitY=1;exitDx=0;exitDy=0;entryX=0.5;entryY=0;entryDx=0;entryDy=0;fontSize=12;startSize=8;endSize=8;" parent="1" source="ymAzP-dkj9Wv20Yx5qc4-13" target="ymAzP-dkj9Wv20Yx5qc4-15" edge="1">
          <mxGeometry relative="1" as="geometry" />
        </mxCell>
        <mxCell id="ymAzP-dkj9Wv20Yx5qc4-13" value="Perform FFT Transformation" style="rounded=1;whiteSpace=wrap;html=1;" parent="1" vertex="1">
          <mxGeometry x="402" y="434" width="120" height="60" as="geometry" />
        </mxCell>
        <mxCell id="ymAzP-dkj9Wv20Yx5qc4-36" style="edgeStyle=none;curved=1;rounded=0;orthogonalLoop=1;jettySize=auto;html=1;exitX=0.5;exitY=1;exitDx=0;exitDy=0;fontSize=12;startSize=8;endSize=8;" parent="1" source="ymAzP-dkj9Wv20Yx5qc4-14" edge="1">
          <mxGeometry relative="1" as="geometry">
            <mxPoint x="305.33333333333337" y="619" as="targetPoint" />
          </mxGeometry>
        </mxCell>
        <mxCell id="ymAzP-dkj9Wv20Yx5qc4-14" value="Display Optimized Weights" style="rounded=1;whiteSpace=wrap;html=1;" parent="1" vertex="1">
          <mxGeometry x="240" y="509" width="120" height="60" as="geometry" />
        </mxCell>
        <mxCell id="ymAzP-dkj9Wv20Yx5qc4-37" style="edgeStyle=none;curved=1;rounded=0;orthogonalLoop=1;jettySize=auto;html=1;exitX=0.5;exitY=1;exitDx=0;exitDy=0;fontSize=12;startSize=8;endSize=8;" parent="1" source="ymAzP-dkj9Wv20Yx5qc4-15" edge="1">
          <mxGeometry relative="1" as="geometry">
            <mxPoint x="462.66666666666663" y="615" as="targetPoint" />
          </mxGeometry>
        </mxCell>
        <mxCell id="ymAzP-dkj9Wv20Yx5qc4-15" value="Display Frequency Domain Data" style="rounded=1;whiteSpace=wrap;html=1;" parent="1" vertex="1">
          <mxGeometry x="402" y="511" width="120" height="60" as="geometry" />
        </mxCell>
        <mxCell id="ymAzP-dkj9Wv20Yx5qc4-35" style="edgeStyle=none;curved=1;rounded=0;orthogonalLoop=1;jettySize=auto;html=1;exitX=0.5;exitY=1;exitDx=0;exitDy=0;fontSize=12;startSize=8;endSize=8;" parent="1" source="ymAzP-dkj9Wv20Yx5qc4-16" edge="1">
          <mxGeometry relative="1" as="geometry">
            <mxPoint x="154.66666666666663" y="619" as="targetPoint" />
          </mxGeometry>
        </mxCell>
        <mxCell id="ymAzP-dkj9Wv20Yx5qc4-16" value="Display Result" style="rounded=1;whiteSpace=wrap;html=1;" parent="1" vertex="1">
          <mxGeometry x="94" y="511" width="120" height="60" as="geometry" />
        </mxCell>
        <mxCell id="ymAzP-dkj9Wv20Yx5qc4-17" value="" style="endArrow=none;html=1;rounded=0;fontSize=12;startSize=8;endSize=8;curved=1;" parent="1" edge="1">
          <mxGeometry width="50" height="50" relative="1" as="geometry">
            <mxPoint x="159" y="308" as="sourcePoint" />
            <mxPoint x="464" y="308" as="targetPoint" />
          </mxGeometry>
        </mxCell>
        <mxCell id="ymAzP-dkj9Wv20Yx5qc4-21" value="" style="endArrow=classic;html=1;rounded=0;fontSize=12;startSize=8;endSize=8;curved=1;entryX=0.611;entryY=-0.056;entryDx=0;entryDy=0;entryPerimeter=0;" parent="1" target="ymAzP-dkj9Wv20Yx5qc4-8" edge="1">
          <mxGeometry width="50" height="50" relative="1" as="geometry">
            <mxPoint x="460" y="310" as="sourcePoint" />
            <mxPoint x="348" y="340" as="targetPoint" />
          </mxGeometry>
        </mxCell>
        <mxCell id="ymAzP-dkj9Wv20Yx5qc4-22" value="" style="endArrow=classic;html=1;rounded=0;fontSize=12;startSize=8;endSize=8;curved=1;entryX=0.5;entryY=0;entryDx=0;entryDy=0;" parent="1" target="ymAzP-dkj9Wv20Yx5qc4-10" edge="1">
          <mxGeometry width="50" height="50" relative="1" as="geometry">
            <mxPoint x="159" y="308" as="sourcePoint" />
            <mxPoint x="348" y="340" as="targetPoint" />
          </mxGeometry>
        </mxCell>
        <mxCell id="ymAzP-dkj9Wv20Yx5qc4-26" value="" style="endArrow=classic;html=1;rounded=0;fontSize=12;startSize=8;endSize=8;curved=1;entryX=0.5;entryY=0;entryDx=0;entryDy=0;" parent="1" target="ymAzP-dkj9Wv20Yx5qc4-9" edge="1">
          <mxGeometry width="50" height="50" relative="1" as="geometry">
            <mxPoint x="293" y="312" as="sourcePoint" />
            <mxPoint x="348" y="340" as="targetPoint" />
          </mxGeometry>
        </mxCell>
        <mxCell id="ymAzP-dkj9Wv20Yx5qc4-27" value="" style="endArrow=none;html=1;rounded=0;fontSize=12;startSize=8;endSize=8;curved=1;" parent="1" edge="1">
          <mxGeometry width="50" height="50" relative="1" as="geometry">
            <mxPoint x="153" y="616" as="sourcePoint" />
            <mxPoint x="463" y="616" as="targetPoint" />
            <Array as="points">
              <mxPoint x="309" y="616" />
            </Array>
          </mxGeometry>
        </mxCell>
        <mxCell id="ymAzP-dkj9Wv20Yx5qc4-42" value="" style="endArrow=classic;html=1;rounded=0;fontSize=12;startSize=8;endSize=8;curved=1;entryX=0.5;entryY=0;entryDx=0;entryDy=0;" parent="1" target="ymAzP-dkj9Wv20Yx5qc4-1" edge="1">
          <mxGeometry width="50" height="50" relative="1" as="geometry">
            <mxPoint x="305" y="616" as="sourcePoint" />
            <mxPoint x="348" y="315" as="targetPoint" />
          </mxGeometry>
        </mxCell>
        <mxCell id="ymAzP-dkj9Wv20Yx5qc4-45" value="Yes" style="text;html=1;align=center;verticalAlign=middle;whiteSpace=wrap;rounded=0;fontSize=16;" parent="1" vertex="1">
          <mxGeometry x="262" y="254" width="60" height="30" as="geometry" />
        </mxCell>
        <mxCell id="ymAzP-dkj9Wv20Yx5qc4-48" value="No" style="text;html=1;align=center;verticalAlign=middle;whiteSpace=wrap;rounded=0;fontSize=16;" parent="1" vertex="1">
          <mxGeometry x="453" y="84" width="60" height="30" as="geometry" />
        </mxCell>
      </root>
    </mxGraphModel>
  </diagram>
</mxfile>
